<svg width="117" height="116" xmlns="http://www.w3.org/2000/svg" xmlns:xlink="http://www.w3.org/1999/xlink" xml:space="preserve" overflow="hidden"><g transform="translate(-991 -302)"><path d="M57.6302 7.25C31.8638 7.25 33.4733 18.4802 33.4733 18.4802L33.4733 30.1165 58.0942 30.1165 58.0942 33.611 23.7365 33.611C23.7365 33.611 7.25 31.7332 7.25 57.8695 7.25 84.0058 21.6412 83.0777 21.6412 83.0777L30.2253 83.0777 30.2253 70.9485C29.7802 63.3939 35.5435 56.9089 43.0981 56.4638 43.5264 56.4386 43.9557 56.4335 44.3845 56.4485L68.7808 56.4485C76.0213 56.7697 82.1505 51.1606 82.4716 43.9204 82.4832 43.6596 82.4876 43.3985 82.4832 43.1375L82.4832 20.793C82.4832 20.793 84.564 7.25 57.6302 7.25L57.6302 7.25ZM44.0728 15.0728C46.5272 15.0607 48.5267 17.0408 48.5387 19.4952 48.5507 21.9497 46.5707 23.9491 44.1162 23.9612 41.6618 23.9731 39.6623 21.9932 39.6503 19.5387 39.6502 19.5314 39.6502 19.5243 39.6502 19.517 39.6423 17.0706 41.619 15.0808 44.0655 15.0728 44.0679 15.0728 44.0704 15.0728 44.0728 15.0728ZM58.377 108.75C84.1435 108.75 82.534 97.5198 82.534 97.5198L82.534 85.8835 57.913 85.8835 57.913 82.389 92.2708 82.389C92.2708 82.389 108.75 84.2668 108.75 58.1305 108.75 31.9943 94.3587 32.9222 94.3587 32.9222L85.782 32.9222 85.782 45.0515C86.2271 52.6061 80.4634 59.0911 72.9089 59.5362 72.4808 59.5614 72.0515 59.5665 71.6227 59.5515L47.2265 59.5515C39.9863 59.2303 33.8566 64.8393 33.5354 72.0796 33.5238 72.3404 33.52 72.6015 33.524 72.8625L33.524 95.2432C33.524 95.2432 31.4432 108.75 58.377 108.75L58.377 108.75ZM71.9345 100.927C69.48 100.94 67.4805 98.9596 67.4686 96.5047 67.4565 94.0506 69.4365 92.0511 71.891 92.0387 74.3451 92.0272 76.3447 94.0071 76.357 96.4613 76.357 96.4685 76.357 96.4758 76.357 96.483 76.365 98.9292 74.3879 100.919 71.9418 100.927 71.9394 100.927 71.937 100.927 71.9345 100.927Z" fill="#43B883" transform="matrix(1.00862 0 0 1 991 302)"/></g></svg>